<?xml version="1.0" encoding="utf-8"?>
<!-- Generator: Adobe Illustrator 23.0.3, SVG Export Plug-In . SVG Version: 6.00 Build 0)  -->
<svg version="1.1" id="Layer_1" xmlns="http://www.w3.org/2000/svg" xmlns:xlink="http://www.w3.org/1999/xlink" x="0px" y="0px"
	 viewBox="0 0 360 360" style="enable-background:new 0 0 360 360;" xml:space="preserve">
<g>
	<path d="M113.01,225.74c2.87-8.04,5.64-15.83,8.52-23.89c-3.68-0.2-7.09-0.39-10.49-0.56c-22.17-1.09-44.34-2.13-66.5-3.28
		c-4.8-0.25-9.73-0.32-14.34-1.48c-15.02-3.78-24.38-18.46-22.11-33.92c2.24-15.23,15.79-26.34,31.56-25.64
		c18.15,0.8,36.29,1.78,54.43,2.7c9.76,0.5,19.56,0.72,29.28,1.66c18.29,1.78,30.88,21.47,24.92,38.88
		c-5.06,14.8-10.49,29.47-15.81,44.18c-0.2,0.54-0.89,1.28-1.36,1.29C125.18,225.77,119.24,225.74,113.01,225.74z M66.83,181.28
		c-8.58-6.85-11.47-15.29-9.14-25.59c-6.58-0.32-12.9-0.72-19.23-0.9c-6.92-0.19-12.57,5.28-12.81,12.18
		c-0.23,6.7,5.08,12.4,11.96,12.81c3.49,0.21,6.99,0.4,10.49,0.58C54.13,180.67,60.17,180.96,66.83,181.28z M90.21,182.51
		c10.07,0.42,20.14,1,30.21,1.19c3.82,0.07,6.92-2.07,9.11-5.23c2.7-3.9,3.1-8.1,1.1-12.4c-2.15-4.62-5.93-6.95-10.97-7.25
		c-5.21-0.3-10.42-0.55-15.63-0.81c-0.77-0.04-1.54-0.01-2.53-0.01C102.73,168.51,99.04,176.55,90.21,182.51z"/>
	<path d="M278.28,138.62c13.47-0.59,26.93-1.53,40.41-1.67c12.88-0.13,22.31,6.24,27.54,17.9c5.25,11.71,3.23,22.79-5.06,32.53
		c-5.98,7.01-13.94,9.86-23.01,10.27c-19.87,0.9-39.73,1.95-59.6,2.95c-6.6,0.33-13.2,0.73-19.8,0.98
		c-15.85,0.58-29.55-10.9-31.47-26.3c-1.98-15.86,7.94-30.34,23.55-33.67c4.99-1.06,10.24-1,15.38-1.29
		c10.69-0.6,21.38-1.08,32.07-1.61C278.28,138.68,278.28,138.65,278.28,138.62z M256.82,157.86c-0.54-0.06-0.87-0.13-1.18-0.12
		c-6.66,0.33-13.34,0.46-19.98,1.08c-6.55,0.6-11.36,6.94-10.69,13.48c0.69,6.75,6,11.64,12.89,11.41
		c9.57-0.32,19.13-0.94,28.69-1.44c0.47-0.02,0.93-0.13,1.73-0.26C259.18,176.28,255.44,168.35,256.82,157.86z M291.35,180.68
		c0.3,0.19,0.41,0.32,0.5,0.31c9.29-0.44,18.6-0.68,27.86-1.4c6.93-0.54,11.79-6.58,11.37-13.32c-0.4-6.48-6.1-11.64-12.97-11.54
		c-4.95,0.07-9.89,0.39-14.83,0.61c-1.03,0.05-2.06,0.18-3.2,0.29C302.48,165.94,299.66,174.29,291.35,180.68z"/>
</g>
<path d="M5,5"/>
<path d="M354.03,5"/>
<path d="M354.03,354.03"/>
<path d="M7.74,354.03"/>
</svg>
